<svg width="480" height="100"
  xmlns="http://www.w3.org/2000/svg"
  xmlns:svg="http://www.w3.org/2000/svg"
  xmlns:se="http://svg-edit.googlecode.com" data-name="Layer 1">
  <defs>
    <style>.cls-1{fill:#994f9b;}.cls-2{fill:#41b27b;}.cls-3{fill:#4e8cb6;}.cls-1,.cls-2,{fill-rule:evenodd;}</style>
  </defs>
  <g class="layer">
    <title>Leggo</title>
    <g id="logo">
      <path class="cls-1" d="m369.22598,42.46425s-0.24684,11.93057 -0.65824,14.39897l0,0.15427c-2.89008,21.39275 -20.32312,37.24191 -43.07349,37.24191c-25.4039,0 -43.48489,-18.95521 -43.69059,-43.74201l0,-0.65824c0.2057,-24.9925 18.51296,-43.94771 43.93743,-43.94771a15.26291,15.26291 0 0 1 1.53246,0.05142l0,14.50182c-0.56567,0 -1.17249,0 -1.7793,0c-16.71309,0 -29.20934,12.90765 -29.41504,29.41504l0,0.57596c0.2057,16.76451 12.49625,29.20934 29.41504,29.20934c14.52239,0 25.65074,-9.34905 28.5511,-22.70923l-26.74094,0l0,-14.49153l41.92157,0l0,-0.00001z" fill="black" id="letra_g2"/>
      <path class="cls-1" d="m424.71343,5.71603a44.34883,44.34883 0 1 0 44.34883,44.34883a44.3694,44.3694 0 0 0 -44.34883,-44.34883zm0,73.91814a29.56931,29.56931 0 1 1 29.56931,-29.56931a29.52817,29.52817 0 0 1 -29.56931,29.56931z" fill="black" id="letra_o"/>
      <path class="cls-1" d="m283.04815,82.93544a11.03578,11.03578 0 1 1 -11.03578,-11.04607a10.77866,10.77866 0 0 1 11.03578,11.04607z" fill="black" id="letra_ponto"/>
      <path class="cls-2" d="m92.35437,50.09571a27.65631,27.65631 0 0 1 0.81251,-6.91151l-15.05721,0a43.72144,43.72144 0 0 0 -0.56567,6.91151a44.35911,44.35911 0 0 0 43.76258,44.34883l0,-14.83094a29.44589,29.44589 0 0 1 -28.95221,-29.51789z" fill="black" id="letra_e_p2"/>
      <polygon class="cls-2" fill="black" id="letra_l_p1" points="70.51935401558876,79.59300994873047 70.51935401558876,94.26968383789062 11.432150036096573,94.26968383789062 11.432150036096573,5.932009696960449 26.170532375574112,5.932009696960449 26.170532375574112,79.59300994873047 70.51935401558876,79.59300994873047 "/>
      <rect class="cls-3" fill="black" height="14.67666" id="letra_l_p2" width="59.07691" x="11.43216" y="79.59302"/>
      <path class="cls-3" d="m165.79939,43.1842l-87.68972,0a44.34883,44.34883 0 0 1 87.67944,0l0.01028,0z" fill="black" id="letra_e_p1"/>
      <path class="cls-3" d="m218.56133,20.48525l0,-14.83094a44.34883,44.34883 0 0 0 -43.69059,44.34883a43.59802,43.59802 0 0 0 0.56567,6.90122l15.03664,0a27.57403,27.57403 0 0 1 -0.81251,-6.90122a29.44589,29.44589 0 0 1 28.90079,-29.51789z" fill="black" id="letra_g1_p1"/>
      <path class="cls-2" d="m263.06443,56.90436l-87.68972,0a44.35911,44.35911 0 0 0 87.68972,0z" fill="black" id="letra_g1_p2"/>
    </g>
  </g>
</svg>
